<?xml version="1.0" encoding="UTF-8"?>
<!DOCTYPE svg PUBLIC "-//W3C//DTD SVG 1.1//EN" "http://www.w3.org/Graphics/SVG/1.1/DTD/svg11.dtd">
<!-- Creator: CorelDRAW -->
<svg xmlns="http://www.w3.org/2000/svg" xml:space="preserve" width="210mm" height="297mm" version="1.1" style="shape-rendering:geometricPrecision; text-rendering:geometricPrecision; image-rendering:optimizeQuality; fill-rule:evenodd; clip-rule:evenodd"
viewBox="0 0 21000 29700"
 xmlns:xlink="http://www.w3.org/1999/xlink"
 xmlns:xodm="http://www.corel.com/coreldraw/odm/2003">
 <defs>
  <style type="text/css">
   <![CDATA[
    .str0 {stroke:#96989A;stroke-width:20;stroke-miterlimit:22.9256}
    .fil0 {fill:#BDBFC1}
    .fil1 {fill:#373435;fill-rule:nonzero}
   ]]>
  </style>
 </defs>
 <g id="Capa_x0020_1">
  <metadata id="CorelCorpID_0Corel-Layer"/>
  <rect class="fil0 str0" x="-11331.97" y="1938.65" width="45943.58" height="24892.96" rx="12446.48" ry="12446.48"/>
  <path class="fil1" d="M1403.6 20483.51c-649,0 -1221.32,-21.9 -1722.44,-60.24 -498.39,-41.08 -939.27,-101.32 -1319.9,-180.73l257.41 -2078.43c673.64,84.89 1240.48,150.61 1700.53,191.68 460.05,43.82 821.51,65.73 1084.4,65.73 725.67,0 1254.18,-49.3 1580.04,-150.62 325.87,-98.58 487.43,-257.4 487.43,-476.47 0,-128.71 -38.33,-230.03 -120.48,-303.96 -79.42,-76.68 -208.12,-139.66 -383.38,-191.69l-2768.5 -802.34c-566.84,-167.05 -994.03,-418.98 -1278.82,-758.54 -287.53,-339.55 -429.93,-796.86 -429.93,-1369.18 0,-914.62 386.12,-1593.74 1155.6,-2040.1 769.48,-449.09 1938.77,-670.9 3505.12,-670.9 364.21,0 742.1,13.69 1136.43,41.08 391.59,24.64 807.82,65.72 1245.96,120.49l-232.76 2012.7c-484.69,-43.81 -911.88,-71.19 -1273.35,-87.62 -364.2,-16.43 -673.64,-24.65 -922.83,-24.65 -840.68,0 -1448.6,46.55 -1826.5,139.66 -377.89,93.1 -564.1,246.45 -564.1,462.78 0,131.45 38.33,235.5 115.01,306.7 76.67,73.94 199.9,134.18 364.2,180.73l2385.13 659.95c731.15,197.17 1278.82,484.7 1640.29,859.85 358.73,377.9 539.46,868.07 539.46,1473.25 0,903.67 -355.99,1577.31 -1073.44,2018.19 -717.46,440.88 -1810.07,662.68 -3280.58,662.68z"/>
  <path id="_1" class="fil1" d="M12874.67 20483.51c-3631.09,0 -5446.64,-1957.94 -5446.64,-5873.82 0,-1856.62 457.31,-3294.27 1371.93,-4312.94 914.62,-1018.68 2209.87,-1528.02 3883.02,-1528.02 753.05,0 1423.96,123.23 2007.23,366.94 580.54,240.98 1024.16,588.76 1322.64,1037.85l-1188.46 1555.4c-240.98,-298.48 -544.94,-531.25 -917.35,-692.81 -372.42,-164.3 -774.97,-243.72 -1207.63,-243.72 -920.09,0 -1656.72,323.13 -2209.87,972.13 -553.15,651.73 -829.73,1571.83 -829.73,2765.76 0,2620.63 1161.07,3929.57 3488.69,3929.57 774.97,0 1541.71,-158.82 2294.77,-479.21l369.68 1955.2c-931.05,364.2 -1911.39,547.67 -2938.28,547.67z"/>
  <path id="_2" class="fil1" d="M22743.78 20321.95l0 -5134.46c0,-476.48 -104.05,-843.42 -314.91,-1098.09 -213.59,-257.41 -512.08,-386.11 -903.66,-386.11 -1089.88,0 -1637.55,744.84 -1637.55,2237.25l-495.65 -2582.29 706.5 0c79.41,-572.32 273.84,-999.5 583.28,-1278.82 312.17,-282.05 783.17,-421.71 1413,-421.71 898.19,0 1593.73,273.84 2086.64,818.78 490.17,544.93 736.63,1314.42 736.63,2311.19l0 5534.26 -2174.28 0zm-5030.4 0l0 -12035.17 2174.28 0 0 12035.17 -2174.28 0z"/>
 </g>
</svg>
